<?xml version="1.0" encoding="UTF-8" standalone="no"?>
<!DOCTYPE svg PUBLIC "-//W3C//DTD SVG 1.1//EN"
 "http://www.w3.org/Graphics/SVG/1.1/DTD/svg11.dtd">
<!-- Generated by graphviz version 3.0.0 (20220226.1711)
 -->
<!-- Pages: 1 -->
<svg width="207pt" height="188pt"
 viewBox="0.00 0.00 206.69 188.00" xmlns="http://www.w3.org/2000/svg" xmlns:xlink="http://www.w3.org/1999/xlink">
<g id="graph0" class="graph" transform="scale(1 1) rotate(0) translate(4 184)">
<polygon fill="white" stroke="transparent" points="-4,4 -4,-184 202.69,-184 202.69,4 -4,4"/>
<!-- 1 -->
<g id="node1" class="node">
<title>1</title>
<ellipse fill="none" stroke="black" cx="118.85" cy="-162" rx="51.19" ry="18"/>
<text text-anchor="middle" x="118.85" y="-158.3" font-family="Times,serif" font-size="14.00">RB(spatial)</text>
</g>
<!-- 2 -->
<g id="node2" class="node">
<title>2</title>
<ellipse fill="none" stroke="black" cx="71.85" cy="-90" rx="45.49" ry="18"/>
<text text-anchor="middle" x="71.85" y="-86.3" font-family="Times,serif" font-size="14.00">B(spatial)</text>
</g>
<!-- 1&#45;&gt;2 -->
<g id="edge1" class="edge">
<title>1&#45;&gt;2</title>
<path fill="none" stroke="black" d="M107.71,-144.41C101.97,-135.87 94.86,-125.28 88.49,-115.79"/>
<polygon fill="black" stroke="black" points="91.39,-113.82 82.91,-107.47 85.57,-117.72 91.39,-113.82"/>
</g>
<!-- 3 -->
<g id="node5" class="node">
<title>3</title>
<ellipse fill="none" stroke="black" cx="166.85" cy="-90" rx="31.7" ry="18"/>
<text text-anchor="middle" x="166.85" y="-86.3" font-family="Times,serif" font-size="14.00">re(a2)</text>
</g>
<!-- 1&#45;&gt;3 -->
<g id="edge4" class="edge">
<title>1&#45;&gt;3</title>
<path fill="none" stroke="black" d="M130.22,-144.41C136.17,-135.74 143.55,-124.97 150.13,-115.38"/>
<polygon fill="black" stroke="black" points="153.12,-117.21 155.88,-106.99 147.34,-113.26 153.12,-117.21"/>
</g>
<!-- 4 -->
<g id="node3" class="node">
<title>4</title>
<ellipse fill="none" stroke="black" cx="31.85" cy="-18" rx="31.7" ry="18"/>
<text text-anchor="middle" x="31.85" y="-14.3" font-family="Times,serif" font-size="14.00">re(a1)</text>
</g>
<!-- 2&#45;&gt;4 -->
<g id="edge2" class="edge">
<title>2&#45;&gt;4</title>
<path fill="none" stroke="black" d="M62.16,-72.05C57.38,-63.68 51.51,-53.4 46.21,-44.13"/>
<polygon fill="black" stroke="black" points="49.17,-42.25 41.17,-35.31 43.09,-45.73 49.17,-42.25"/>
</g>
<!-- 5 -->
<g id="node4" class="node">
<title>5</title>
<ellipse fill="none" stroke="black" cx="112.85" cy="-18" rx="31.4" ry="18"/>
<text text-anchor="middle" x="112.85" y="-14.3" font-family="Times,serif" font-size="14.00">cl(a2)</text>
</g>
<!-- 2&#45;&gt;5 -->
<g id="edge3" class="edge">
<title>2&#45;&gt;5</title>
<path fill="none" stroke="black" d="M81.56,-72.41C86.47,-64.04 92.52,-53.71 97.99,-44.37"/>
<polygon fill="black" stroke="black" points="101.17,-45.87 103.2,-35.47 95.13,-42.33 101.17,-45.87"/>
</g>
</g>
</svg>
